<?xml version="1.0" encoding="iso-8859-1"?>
<!-- Generator: Adobe Illustrator 19.0.0, SVG Export Plug-In . SVG Version: 6.00 Build 0)  -->
<svg version="1.1" id="Layer_1" xmlns="http://www.w3.org/2000/svg" xmlns:xlink="http://www.w3.org/1999/xlink" x="0px" y="0px"
	 viewBox="0 0 481.499 481.499" style="enable-background:new 0 0 481.499 481.499;" xml:space="preserve">
<g>
	<rect id="SVGCleanerId_0" x="384.518" y="142.499" style="fill:#F5BA46;" width="48" height="192"/>
</g>
<g>
	<rect id="SVGCleanerId_0_1_" x="384.518" y="142.499" style="fill:#F5BA46;" width="48" height="192"/>
</g>
<g>
	<path style="fill:#F5BA46;" d="M432.518,334.499h-280c-8.84,0-16,7.16-16,16v32h312v-32
		C448.518,341.659,441.358,334.499,432.518,334.499z"/>
	<path style="fill:#F5BA46;" d="M456.518,382.499h-320c-8.84,0-16,7.16-16,16v16h352v-16
		C472.518,389.659,465.358,382.499,456.518,382.499z"/>
</g>
<g>
	<rect id="SVGCleanerId_0_2_" x="384.518" y="142.499" style="fill:#F5BA46;" width="48" height="192"/>
</g>
<g>
	<rect x="272.518" y="142.499" style="fill:#F5BA46;" width="48" height="192"/>
	<rect x="160.518" y="142.499" style="fill:#F5BA46;" width="48" height="192"/>
	<path style="fill:#F5BA46;" d="M457.942,142.499h-320c-8.84,0-16-7.16-16-16v-24.944c0-6.272,3.664-11.968,9.376-14.568l160-72.728
		c4.208-1.912,9.032-1.912,13.24,0l160.008,72.728c5.712,2.6,9.376,8.288,9.376,14.568v24.944
		C473.942,135.339,466.782,142.499,457.942,142.499z"/>
</g>
<path d="M457.95,150.499c13.232,0,22.568-10.768,22.568-24v-24.944c0-9.392-4.808-17.968-13.352-21.848L307.51,6.979
	c-6.304-2.856-13.352-2.864-19.688,0l-160.608,72.72c-8.544,3.888-14.696,12.464-14.696,21.856v24.944c0,13.232,12.192,24,25.432,24
	h14.568v176c-13.232,0-24,10.768-24,24v25.472c-9.288,3.312-16,12.112-16,22.528v16c0,4.416,3.576,8,8,8h352c4.424,0,8-3.584,8-8
	v-16c0-13.232-10.768-24-24-24v-24c0-10.416-6.712-19.216-16-22.528V150.499H457.95z M128.518,126.499v-24.944
	c0-3.136,2.552-5.992,5.4-7.288l160.344-72.728c1.056-0.48,2.368-0.72,3.496-0.72s2.344,0.24,3.392,0.712l159.344,72.736
	c2.848,1.296,4.024,4.16,4.024,7.288v24.944c0,4.408-2.16,8-6.568,8h-25.432h-48h-64h-48h-64h-48H137.95
	C133.534,134.499,128.518,130.907,128.518,126.499z M328.518,326.499v-176h48v176H328.518z M216.518,326.499v-176h48v176H216.518z
	 M280.518,150.499h32v176h-32V150.499z M168.518,150.499h32v176h-32V150.499z M464.518,398.499v8h-336v-8c0-4.408,3.584-8,8-8h312h8
	C460.934,390.499,464.518,394.091,464.518,398.499z M144.518,374.499v-24c0-4.408,3.584-8,8-8h8h48h64h48h64h48c4.416,0,8,3.592,8,8
	v24H144.518z M424.518,326.499h-32v-176h32V326.499z"/>
<circle style="fill:#F9D690;" cx="296.518" cy="86.499" r="32"/>
<path d="M344.518,78.499h-8.808c-3.72-18.232-19.88-32-39.192-32s-35.472,13.768-39.192,32h-8.808c-4.424,0-8,3.584-8,8s3.576,8,8,8
	h8.808c3.72,18.232,19.872,32,39.192,32s35.472-13.768,39.192-32h8.808c4.424,0,8-3.584,8-8S348.942,78.499,344.518,78.499z
	 M296.518,110.499c-13.232,0-24-10.768-24-24s10.768-24,24-24s24,10.768,24,24S309.75,110.499,296.518,110.499z"/>
<circle cx="296.518" cy="86.499" r="8"/>
<path d="M24.566,221.115c4.08-1.792,8.856-0.2,10.664,3.56c1.656,3.84,0.696,8.384-3.24,10.736
	c-3.704,2.224-9.168,1.008-11.088-3.336C18.846,227.819,20.494,222.907,24.566,221.115z"/>
<path d="M14.542,190.795c4.36-0.888,8.752,1.664,9.792,5.704c0.912,4.08-1.4,8.432-5.544,9.84c-4.288,1.456-8.96-1.008-10.024-5.632
	C7.59,196.131,10.182,191.691,14.542,190.795z"/>
<path d="M11.142,159.035c4.448,0.04,8.248,3.456,8.456,7.632c0.24,4.168-3.288,7.976-7.584,8.472
	c-4.552,0.52-8.256-2.904-8.52-7.624C3.262,162.787,6.694,158.995,11.142,159.035z"/>
<path d="M14.182,128.787c4.352,0.928,7.392,5.024,6.76,9.152c-0.656,4.12-4.752,7.168-9.072,6.8c-4.552-0.384-7.608-4.48-6.88-9.16
	C5.702,130.899,9.822,127.859,14.182,128.787z"/>
<path d="M23.886,98.363c3.968,1.792,5.944,6.384,4.6,10.336c-1.432,3.92-6.056,6.032-10.32,4.736
	c-4.256-1.296-6.408-5.96-4.776-10.408C14.942,98.539,19.742,96.499,23.886,98.363z"/>
<path d="M39.79,70.675c3.68,2.704,4.24,7.336,2.224,11c-2.16,3.568-7.08,4.696-10.968,2.528s-5.056-7.208-2.592-11.256
	C30.774,68.819,36.302,68.099,39.79,70.675z"/>
<path d="M61.102,46.907c2.968,3.344,2.816,8.28-0.216,11.136c-2.8,3.096-7.8,3.216-11.144,0.288
	c-3.352-2.936-3.488-8.16-0.296-11.648C52.878,43.427,58.158,43.587,61.102,46.907z"/>
<path d="M86.87,28.075c2.192,3.872,1.08,8.776-2.488,10.936c-3.6,2.12-8.272,1.536-10.992-2.12c-2.6-3.48-1.88-8.96,2.184-11.384
	C79.622,23.043,84.678,24.195,86.87,28.075z"/>
<path d="M114.55,15.571c1.368,4.24-0.696,8.84-4.608,10.272c-3.984,1.272-8.432-0.208-10.36-4.328
	c-1.856-3.944-0.064-9.192,4.44-10.672C108.462,9.211,113.182,11.339,114.55,15.571z"/>
<path d="M145.726,8.675c0.448,4.432-2.536,8.544-6.664,9.176c-4.144,0.512-8.256-2.272-9.232-6.52
	c-1.016-4.432,1.912-8.784,6.616-9.392C141.126,1.219,145.286,4.243,145.726,8.675z"/>
<path d="M177.678,8.467c-0.48,4.424-4.256,7.856-8.432,7.648c-4.168-0.208-7.608-4.04-7.672-8.368
	c-0.072-4.576,3.704-7.968,8.432-7.736C174.726,0.243,178.158,4.043,177.678,8.467z"/>
<path d="M208.934,15.035c-1.376,4.12-5.768,6.624-9.824,5.64c-4.04-1.04-6.608-5.432-5.752-9.8c0.864-4.368,5.28-6.968,9.864-5.784
	C207.83,6.219,210.374,10.707,208.934,15.035z"/>
<g>
	<circle style="fill:#34B095;" cx="122.958" cy="359.539" r="113.984"/>
	<ellipse style="fill:#34B095;" cx="124.134" cy="359.539" rx="49.232" ry="113.984"/>
</g>
<path d="M244.942,359.515c0-66.456-53.448-120.584-119.608-121.864c-0.4-0.016-0.792-0.12-1.192-0.12
	c-0.136,0-0.264,0.04-0.392,0.04c-0.264,0-0.52-0.04-0.784-0.04c-32.432,0-61.872,12.808-83.744,33.52
	c-2.2,0.808-3.904,2.512-4.712,4.712c-20.72,21.872-33.528,51.312-33.528,83.752c0,67.264,54.72,121.984,121.984,121.984
	c0.264,0,0.52-0.04,0.784-0.04c0.136,0,0.264,0.04,0.392,0.04c0.408,0,0.792-0.104,1.192-0.12
	C191.494,480.099,244.942,425.971,244.942,359.515z M123.814,465.459c-7.616-0.184-15.536-7.024-22.368-18.96h45.376
	c-6.72,11.744-14.496,18.512-22,18.904C124.486,465.411,124.158,465.451,123.814,465.459z M46.326,286.499h31.416
	c-3.272,9.608-5.872,20.344-7.704,32h-44.8C30.278,306.539,37.502,295.755,46.326,286.499z M124.83,253.627
	c7.08,0.368,14.408,6.336,20.856,16.872h-43.104c6.568-10.72,14.04-16.752,21.232-16.928
	C124.158,253.579,124.486,253.619,124.83,253.627z M225.95,382.499h-45.552c0.616-7.416,0.968-15.072,0.968-22.984
	c0-8.624-0.384-16.984-1.104-25.016h45.568c1.952,8.04,3.104,16.384,3.104,25.016c0,7.928-0.944,15.624-2.6,23.064
	C226.198,382.571,226.086,382.499,225.95,382.499z M83.926,382.499c-0.664-7.32-1.024-14.992-1.024-22.984
	c0-8.752,0.464-17.08,1.256-25.016h79.96c0.784,7.936,1.256,16.264,1.256,25.016c0,7.992-0.368,15.664-1.024,22.984H83.926z
	 M162.286,398.499c-1.96,12.04-4.752,22.808-8.136,32H94.118c-3.384-9.192-6.176-19.96-8.136-32H162.286z M86.302,318.499
	c2.096-12.136,5.064-22.872,8.6-32h58.472c3.536,9.128,6.504,19.864,8.6,32H86.302z M178.238,318.499
	c-1.832-11.656-4.44-22.392-7.704-32h29.056c8.824,9.256,16.048,20.04,21.088,32H178.238z M163.982,270.499
	c-1.968-3.992-4.08-7.672-6.32-11.016c8.016,2.792,15.592,6.48,22.608,11.016H163.982z M84.286,270.499H65.638
	c7.92-5.112,16.512-9.264,25.68-12.144C88.814,261.979,86.47,266.067,84.286,270.499z M68.006,334.499
	c-0.728,8.032-1.104,16.392-1.104,25.016c0,7.912,0.36,15.568,0.968,22.984H19.558c-1.648-7.408-2.584-15.088-2.584-22.984
	c0-8.632,1.152-16.976,3.104-25.016H68.006z M69.702,398.499c1.72,11.616,4.2,22.352,7.336,32H44.486
	c-8.448-9.328-15.264-20.12-19.984-32H69.702z M83.246,446.499c2.464,5.256,5.176,9.984,8.08,14.168
	c-10.368-3.248-20.024-8.088-28.752-14.168H83.246z M165.03,446.499h18.312c-7.848,5.464-16.48,9.84-25.68,13.04
	C160.294,455.619,162.774,451.315,165.03,446.499z M171.23,430.499c3.136-9.648,5.616-20.384,7.336-32h42.848
	c-4.72,11.88-11.544,22.672-19.984,32H171.23z"/>
<g>
</g>
<g>
</g>
<g>
</g>
<g>
</g>
<g>
</g>
<g>
</g>
<g>
</g>
<g>
</g>
<g>
</g>
<g>
</g>
<g>
</g>
<g>
</g>
<g>
</g>
<g>
</g>
<g>
</g>
</svg>
