<?xml version="1.0" encoding="iso-8859-1"?>
<!-- Generator: Adobe Illustrator 19.0.0, SVG Export Plug-In . SVG Version: 6.00 Build 0)  -->
<svg version="1.1" id="Layer_1" xmlns="http://www.w3.org/2000/svg" xmlns:xlink="http://www.w3.org/1999/xlink" x="0px" y="0px"
	 viewBox="0 0 512.001 512.001" style="enable-background:new 0 0 512.001 512.001;" xml:space="preserve">
<path style="fill:#E4EAF6;" d="M462.597,251.509H247.018c-9.922,0-17.965-8.043-17.965-17.965V17.965
	C229.053,8.043,237.096,0,247.018,0h215.579c9.922,0,17.965,8.043,17.965,17.965v215.579
	C480.562,243.466,472.519,251.509,462.597,251.509z"/>
<path style="fill:#FF6464;" d="M435.605,53.009c-0.013-0.141-0.04-0.28-0.061-0.419c-0.021-0.149-0.039-0.299-0.068-0.447
	c-0.033-0.166-0.077-0.327-0.12-0.49c-0.03-0.12-0.056-0.24-0.092-0.359c-0.051-0.167-0.112-0.329-0.172-0.492
	c-0.04-0.111-0.076-0.225-0.122-0.335c-0.067-0.163-0.145-0.319-0.221-0.477c-0.051-0.106-0.098-0.212-0.153-0.317
	c-0.089-0.167-0.189-0.327-0.289-0.487c-0.054-0.088-0.103-0.177-0.161-0.264c-0.134-0.2-0.277-0.391-0.426-0.579
	c-0.033-0.042-0.062-0.085-0.095-0.127c-0.383-0.469-0.812-0.898-1.281-1.281c-0.042-0.034-0.085-0.062-0.126-0.094
	c-0.189-0.148-0.38-0.293-0.579-0.426c-0.09-0.06-0.183-0.11-0.274-0.166c-0.157-0.097-0.313-0.194-0.477-0.282
	c-0.108-0.057-0.218-0.104-0.327-0.157c-0.155-0.074-0.308-0.15-0.467-0.217c-0.113-0.047-0.23-0.084-0.345-0.126
	c-0.159-0.058-0.318-0.119-0.481-0.168c-0.121-0.037-0.245-0.063-0.368-0.094c-0.159-0.04-0.319-0.085-0.482-0.118
	c-0.149-0.029-0.299-0.047-0.449-0.068c-0.139-0.02-0.276-0.046-0.417-0.061c-0.295-0.03-0.591-0.046-0.886-0.046h-44.912
	c-4.961,0-8.982,4.017-8.982,8.982s4.022,8.982,8.982,8.982h23.228l-105.93,105.93c-3.509,3.509-3.509,9.194,0,12.702
	c1.755,1.755,4.052,2.632,6.351,2.632c2.298,0,4.597-0.877,6.351-2.632L417.685,75.58v23.228c0,4.965,4.022,8.982,8.982,8.982
	c4.961,0,8.982-4.017,8.982-8.982V53.895C435.65,53.599,435.634,53.303,435.605,53.009z"/>
<g>
	<path style="fill:#5B5D6E;" d="M318.105,76.351l16.106-16.106c3.509-3.509,3.509-9.194,0-12.702c-3.509-3.509-9.194-3.509-12.702,0
		L305.404,63.65l-16.106-16.106c-3.509-3.509-9.194-3.509-12.702,0c-3.509,3.509-3.509,9.194,0,12.702l16.106,16.104l-16.106,16.106
		c-3.509,3.509-3.509,9.194,0,12.702c1.755,1.754,4.053,2.631,6.352,2.631c2.298,0,4.597-0.877,6.351-2.632l16.106-16.104
		l16.106,16.106c1.754,1.754,4.052,2.631,6.351,2.631c2.298,0,4.597-0.877,6.351-2.632c3.509-3.509,3.509-9.194,0-12.702
		L318.105,76.351z"/>
	<path style="fill:#5B5D6E;" d="M416.912,175.158l16.106-16.106c3.509-3.509,3.509-9.194,0-12.702
		c-3.509-3.509-9.194-3.509-12.702,0l-16.104,16.107l-16.106-16.106c-3.509-3.509-9.194-3.509-12.702,0
		c-3.509,3.509-3.509,9.194,0,12.702l16.106,16.104l-16.106,16.106c-3.509,3.509-3.509,9.194,0,12.702
		c1.755,1.755,4.052,2.632,6.351,2.632s4.597-0.877,6.351-2.632l16.107-16.106l16.106,16.106c1.755,1.755,4.052,2.632,6.351,2.632
		c2.298,0,4.597-0.877,6.351-2.632c3.509-3.509,3.509-9.194,0-12.702L416.912,175.158z"/>
</g>
<path style="fill:#E6AF78;" d="M273.275,383.592V346.17H148.902v37.422c0,6.412-4.412,11.983-10.654,13.451l-85.501,20.117
	c-12.484,2.938-21.308,14.079-21.308,26.905v61.025c0,3.816,3.093,6.91,6.91,6.91h345.479c3.816,0,6.91-3.093,6.91-6.91v-61.025
	c0-12.826-8.823-23.966-21.309-26.904l-85.501-20.117C277.686,395.575,273.275,390.005,273.275,383.592z"/>
<path style="fill:#FF6464;" d="M369.429,417.161l-85.501-20.117c-1.291-0.303-2.479-0.82-3.59-1.445l-69.25,40.396l-66.55-42.35
	c-1.722,1.622-3.861,2.827-6.29,3.399l-85.501,20.117c-12.486,2.938-21.309,14.079-21.309,26.905v61.026
	c0,3.815,3.093,6.91,6.91,6.91h345.479c3.816,0,6.91-3.093,6.91-6.91v-61.026C390.737,431.24,381.914,420.099,369.429,417.161z"/>
<path style="fill:#D5DCEC;" d="M271.922,400.509l-60.834,35.486L149.67,396.91c4.492,29.93,30.237,52.904,61.419,52.904
	C241.014,449.813,265.987,428.669,271.922,400.509z"/>
<path style="fill:#D29B6E;" d="M148.902,383.592c0,4.638-2.329,8.812-5.969,11.335c81.974,41.068,130.341-40.14,130.341-40.14
	v-8.616H148.902V383.592z"/>
<path style="fill:#F0C087;" d="M121.264,183.795l6.022,132.467c0.563,12.376,6.63,23.851,16.54,31.284l28.57,21.428
	c7.176,5.382,15.905,8.292,24.875,8.292h27.638c8.97,0,17.699-2.909,24.875-8.292l28.57-21.428
	c9.911-7.433,15.978-18.908,16.54-31.284l6.021-132.467H121.264z"/>
<path style="fill:#E6AF78;" d="M121.264,183.795l6.02,132.465c0.563,12.376,6.63,23.851,16.54,31.285l28.57,21.428
	c7.176,5.382,15.905,8.292,24.875,8.292h13.82c-20.729-6.91-34.548-62.187-34.548-62.187v-75.412c0-5.195,3.962-9.465,9.133-9.966
	c38.704-3.749,82.438-13.468,115.239-36.403v-9.501H121.264V183.795z"/>
<path style="fill:#5A4146;" d="M107.444,176.885v6.91l6.91,76.005h13.82l13.82-41.457c0,0,89.825,0,138.192-27.638l13.82,69.095
	h13.82l6.91-76.005v-6.91c0-38.161-30.936-69.095-69.095-69.095h-69.095C138.38,107.789,107.444,138.725,107.444,176.885z"/>
<path style="fill:#F0C087;" d="M314.298,270.663l-7.804,31.213c-0.924,3.699-4.248,6.292-8.06,6.292l0,0
	c-4.189,0-7.723-3.119-8.243-7.277l-3.99-31.924c-1.067-8.537,5.589-16.076,14.192-16.076h0.027
	C309.727,252.891,316.555,261.635,314.298,270.663z"/>
<path style="fill:#E6AF78;" d="M107.879,270.663l7.804,31.213c0.924,3.699,4.248,6.292,8.06,6.292l0,0
	c4.189,0,7.723-3.119,8.243-7.277l3.99-31.924c1.067-8.537-5.589-16.076-14.192-16.076h-0.027
	C112.45,252.891,105.622,261.635,107.879,270.663z"/>
<g>
	<path style="fill:#D2555A;" d="M82.164,467.157l-44.774-40.22c-3.751,4.751-5.951,10.728-5.951,17.128v61.026
		c0,3.816,3.093,6.91,6.91,6.91h55.277V492.86C93.626,483.053,89.459,473.709,82.164,467.157z"/>
	<path style="fill:#D2555A;" d="M340.012,467.157l44.774-40.22c3.752,4.751,5.952,10.728,5.952,17.128v61.026
		c0,3.816-3.093,6.91-6.91,6.91h-55.277V492.86C328.551,483.053,332.717,473.709,340.012,467.157z"/>
	<path style="fill:#D2555A;" d="M211.088,463.633c38.516,0,70.355-28.822,75.271-66.018l-2.431-0.572
		c-1.291-0.303-2.479-0.82-3.59-1.445l-8.424,4.915c-5.953,28.124-30.956,49.301-60.826,49.301
		c-31.125,0-56.908-23.013-61.415-52.901l-5.135-3.267c-1.722,1.622-3.861,2.827-6.29,3.399l-2.431,0.572
		C140.733,434.81,172.573,463.633,211.088,463.633z"/>
</g>
<g>
	<path style="fill:#E4EAF6;" d="M147.932,379.154l63.157,56.841c0,0-17.688,8.929-39.515,26.925
		c-4.502,3.712-11.313,2.209-13.729-3.105l-29.672-65.279l9.387-14.08C139.897,376.951,144.8,376.336,147.932,379.154z"/>
	<path style="fill:#E4EAF6;" d="M274.245,379.154l-63.157,56.841c0,0,17.688,8.929,39.515,26.925
		c4.502,3.712,11.313,2.209,13.729-3.105l29.672-65.279l-9.387-14.08C282.28,376.951,277.377,376.336,274.245,379.154z"/>
</g>
<g>
</g>
<g>
</g>
<g>
</g>
<g>
</g>
<g>
</g>
<g>
</g>
<g>
</g>
<g>
</g>
<g>
</g>
<g>
</g>
<g>
</g>
<g>
</g>
<g>
</g>
<g>
</g>
<g>
</g>
</svg>
