<svg id="Capa_1" enable-background="new 0 0 512 512" height="512" viewBox="0 0 512 512" width="512" xmlns="http://www.w3.org/2000/svg"><g><g><g><path d="m118.594 11.395-92.274 44.258h-17.82v78.09h104.735l107.055-30.234-51.52-78.194c-10.89-16.533-32.327-22.479-50.176-13.92z" fill="#ffcbbe"/><path d="m105.993 96.901v3.144h80.294v-26.45h-56.988c-12.872 0-23.306 10.434-23.306 23.306z" fill="#eaac9d"/><g><path d="m144.185 201.316v-139.275c0-22.565 18.292-40.857 40.857-40.857h203.904c22.565 0 40.857 18.292 40.857 40.857v139.275c0 22.565-18.292 40.857-40.857 40.857h-203.904c-22.565 0-40.857-18.292-40.857-40.857z" fill="#8bc852"/><path d="m168.182 184.276v-105.195c18.722 0 33.9-15.178 33.9-33.9h169.824c0 18.722 15.178 33.9 33.9 33.9v105.196c-18.722 0-33.9 15.178-33.9 33.9h-169.824c0-18.723-15.178-33.901-33.9-33.901z" fill="#69af81"/><circle cx="286.994" cy="131.679" fill="#8bc852" r="55.843"/></g><g><path d="m229.389 93.434h-220.889v53.253h29.164l13.01 13.503c25.348 26.295 66.661 28.624 94.802 5.359l15.614-12.915h68.299c8.172 0 15.567-3.314 20.926-8.664 5.36-5.359 8.674-12.764 8.674-20.936-.001-16.344-13.257-29.6-29.6-29.6z" fill="#ffcbbe"/><path d="m159.935 134.699c-36.294 30.016-89.585 27.005-122.271-6.903h-29.164v18.89h29.164l13.01 13.503c25.348 26.295 66.661 28.624 94.802 5.359l15.614-12.915h68.299c8.172 0 15.567-3.314 20.926-8.664 5.36-5.359 8.674-12.755 8.674-20.936 0-3.305-.54-6.477-1.534-9.44-1.477 4.374-3.948 8.285-7.14 11.476-5.359 5.36-12.754 8.674-20.926 8.674h-68.299z" fill="#eaac9d"/></g></g><g><path d="m152.702 337.834c.576 19.635 1.9 39.269 3.99 58.912 1.104 10.393 9.51 18.468 19.919 19.296 65.883 5.22 131.766 5.22 197.648 0 10.417-.828 18.823-8.903 19.926-19.296.103-.978.205-1.948.3-2.925 5.465-53.282 5.362-106.572-.3-159.853-1.104-10.385-9.51-18.468-19.926-19.296-21.109-1.672-42.226-2.807-63.344-3.406-23.656-.67-47.305-.67-70.961 0-21.117.599-42.227 1.735-63.344 3.406-10.409.828-18.815 8.911-19.919 19.296-3.673 34.624-5.006 69.241-3.989 103.866z" fill="#f4dd45"/><path d="m152.702 337.834c.576 19.635 1.9 39.269 3.99 58.912 1.104 10.393 9.51 18.468 19.919 19.296 65.883 5.22 131.766 5.22 197.648 0 10.417-.828 18.823-8.903 19.926-19.296.103-.978.205-1.948.3-2.925-3.746-11.986-20.557-24.713-80.392-15.179-101.154 16.116-161.391-40.808-161.391-40.808z" fill="#ecbe6b"/><path d="m361.563 416.981c4.235-.292 8.469-.599 12.703-.938 10.409-.828 18.815-8.903 19.919-19.296 5.764-54.26 5.764-108.519 0-162.779-1.104-10.385-9.51-18.468-19.919-19.296-4.234-.331-8.469-.647-12.703-.938 3.911 3.682 6.537 8.705 7.136 14.367 6.182 58.171 6.182 116.342 0 174.512-.599 5.663-3.224 10.693-7.136 14.368z" fill="#ecbe6b"/><path d="m239.955 211.265v82.119l35.484-24.721 35.477 24.721v-82.119c-23.657-.671-47.305-.671-70.961 0z" fill="#595959"/></g><g><path d="m125.74 394.913h.007l101.718 81.592c8.359 6.706 19.085 9.76 29.73 8.461l137.094-16.684 36.528 13.512c19.623-20.18 11.559-85.113 11.559-85.113l-8.699-2.381c.755-11.624-4.727-23.166-14.902-29.771-1.122-.735-2.299-1.401-3.537-2.007l-58.786-28.71-30.233-14.766c-1.646-.803-3.326-1.435-5.033-1.898-12.637-3.462-26.356 2.095-32.825 14.011-7.339 13.528-2.714 30.437 10.488 38.348l48.87 29.288-82.238 14.324c-9.896 1.721-20.078-.36-28.512-5.836l-81.79-53.094c-10.971-7.128-25.567-4.652-33.587 5.693-2.075 2.68-3.53 5.652-4.38 8.74-2.573 9.389.468 19.822 8.528 26.291z" fill="#ffcbbe"/><path d="m257.419 463.052c56.319 7.315 95.146-25.71 118.637-56.781 11.647-15.406 7.72-37.443-8.54-47.865-56.713-36.353-71.382-35.017-79.156-27.244 6.468-11.916 20.187-17.473 32.825-14.011 1.707.463 3.387 1.095 5.033 1.898l30.233 14.766 47.648 23.27s.005.008.006.009l11.133 5.43c12.427 6.067 19.276 18.868 18.439 31.777l8.699 2.381s8.064 64.932-11.559 85.113l-36.528-13.512-137.094 16.684c-10.645 1.299-21.371-1.755-29.73-8.461l-101.718-81.592c35.15-9.537 93.74 62.336 131.672 68.138z" fill="#eaac9d"/><ellipse cx="461.583" cy="446.504" fill="#3b66c1" rx="74.013" ry="36.713" transform="matrix(.333 -.943 .943 .333 -113.197 732.952)"/><path d="m419.669 487.199c15.038 9.392 31.352 15.156 48.953 17.301 3.493-8.406 6.86-16.851 10.109-25.336-18.334-2.263-35.358-8.217-51.074-17.868-2.783 8.595-5.449 17.229-7.988 25.903z" fill="#26457d"/></g></g><g><path d="m365.624 139.224h19.016c4.142 0 7.499-3.358 7.499-7.499 0-4.142-3.357-7.499-7.499-7.499h-19.016c-4.142 0-7.499 3.358-7.499 7.499 0 4.142 3.357 7.499 7.499 7.499z"/><path d="m507.44 399.462c-15.921-9.93-33.422-16.114-52.017-18.38-3.34-.405-6.541 1.46-7.832 4.567-.591 1.422-1.172 2.84-1.753 4.258l-4.779-1.322c-1.09-12.263-7.737-23.515-18.215-30.319-1.419-.924-2.884-1.755-4.333-2.455l-13.277-6.485c1.481-33.791.739-67.922-2.216-101.725 19.951-6.109 34.26-24.867 34.26-46.243v-139.263c0-26.663-21.688-48.354-48.345-48.354h-25.946c-4.142 0-7.499 3.358-7.499 7.499s3.357 7.499 7.499 7.499h25.946c18.388 0 33.347 14.964 33.347 33.356v139.264c0 13.708-8.528 25.854-20.778 30.881-1.585-11.297-9.62-20.468-20.263-23.775 3.888-9.842 13.466-16.644 24.551-16.644 4.142 0 7.499-3.358 7.499-7.499v-105.189c0-4.142-3.357-7.499-7.499-7.499-14.555 0-26.396-11.841-26.396-26.397 0-4.142-3.357-7.499-7.499-7.499h-169.81c-4.142 0-7.499 3.358-7.499 7.499 0 14.555-11.841 26.397-26.396 26.397-4.142 0-7.499 3.358-7.499 7.499v6.852h-8.988v-23.891c0-18.392 14.959-33.356 33.346-33.356h147.943c4.142 0 7.499-3.358 7.499-7.499s-3.357-7.499-7.499-7.499h-147.944c-4.919 0-9.668.744-14.143 2.116-13.806-15.63-36.258-20.412-55.538-11.162l-90.727 43.514h-16.112c-4.142 0-7.499 3.358-7.499 7.499s3.357 7.499 7.499 7.499h17.818c1.123 0 2.231-.252 3.243-.738l92.264-44.252c11.853-5.684 25.462-3.588 34.918 4.693-12.145 8.792-20.067 23.076-20.067 39.184v23.891h-3.084c-4.142 0-7.499 3.358-7.499 7.499s3.357 7.499 7.499 7.499h95.772c12.184 0 22.097 9.913 22.097 22.097 0 5.903-2.3 11.454-6.472 15.626-4.18 4.173-9.729 6.471-15.625 6.471h-68.291c-1.745 0-3.435.608-4.78 1.721l-15.611 12.913c-12.149 10.043-27.516 15.082-43.242 14.196-15.738-.889-30.431-7.63-41.371-18.978l-13.008-13.501c-1.414-1.467-3.364-2.296-5.401-2.296h-29.16c-4.142 0-7.499 3.358-7.499 7.499s3.357 7.499 7.499 7.499h25.972l10.798 11.207c13.574 14.08 31.801 22.442 51.324 23.545 1.473.083 2.94.124 4.406.124 12.509 0 24.711-3.022 35.676-8.741v20.994c0 11.969 4.515 23.556 12.487 32.395-3.82 36.2-5.092 72.873-3.806 109.184-11.065-1.278-22.525 3.11-29.714 12.388-2.633 3.408-4.541 7.215-5.679 11.334-3.441 12.576.905 25.968 11.073 34.118.077.062.155.123.235.181l35.178 28.223c1.384 1.11 3.042 1.65 4.688 1.65 2.196 0 4.373-.96 5.854-2.807 2.592-3.231 2.074-7.95-1.156-10.542l-35.406-28.406c-.067-.054-.136-.106-.204-.158-5.361-4.42-7.635-11.575-5.799-18.283.611-2.216 1.65-4.282 3.08-6.132 5.583-7.207 15.937-8.966 23.574-4.002l81.77 53.084c10.049 6.524 22.081 8.99 33.886 6.937l82.231-14.318c3.088-.538 5.514-2.937 6.087-6.017.572-3.08-.831-6.192-3.518-7.803l-48.865-29.287c-9.786-5.865-13.191-18.312-7.752-28.336 4.732-8.718 14.701-12.977 24.277-10.344 1.25.336 2.489.804 3.696 1.396l89.035 43.488c.917.443 1.801.944 2.713 1.538 7.693 4.996 12.099 13.804 11.499 22.989-.231 3.546 2.058 6.769 5.485 7.716l8.565 2.369c-.693 1.766-1.378 3.524-2.048 5.265-1.488 3.865.438 8.205 4.304 9.693 3.865 1.488 8.205-.439 9.692-4.304 2.233-5.801 4.598-11.757 7.056-17.771 12.465 2.151 24.33 6.344 35.397 12.51-8.815 29.384-19.132 58.574-30.72 86.926-12.479-2.152-24.342-6.344-35.394-12.508 4.729-15.779 9.932-31.618 15.492-47.161 1.395-3.899-.635-8.192-4.535-9.587-3.898-1.396-8.191.635-9.587 4.535-4.408 12.318-8.587 24.819-12.495 37.332l-20.501-7.588c-1.12-.414-2.322-.555-3.509-.412l-137.084 16.68c-8.583 1.052-17.377-1.446-24.128-6.865l-42.915-34.426c-3.232-2.593-7.951-2.074-10.543 1.157-2.591 3.231-2.073 7.95 1.157 10.542l42.914 34.425c8.401 6.743 18.964 10.402 29.658 10.402 1.892 0 3.79-.115 5.679-.347l135.27-16.459 19.636 7.267c-.184.625-.374 1.251-.557 1.875-.945 3.227.373 6.687 3.224 8.468 15.895 9.928 33.395 16.112 52.012 18.382.306.037.61.056.912.056 2.997 0 5.746-1.798 6.92-4.619 13.45-32.328 25.273-65.787 35.145-99.445.944-3.229-.375-6.693-3.23-8.474zm-331.752-313.477v-.033c16.823-3.092 30.124-16.392 33.215-33.215h156.174c3.091 16.824 16.392 30.124 33.215 33.215v91.544c-15.382 2.801-27.886 14.077-32.244 29.085-52.629-3.789-105.79-4.262-158.553-1.423-4.724-14.408-16.903-24.984-31.806-27.669v-17.313h53.704c.331 0 .659-.015.988-.024 10.684 21.38 32.317 34.908 56.605 34.908 34.927 0 63.342-28.411 63.342-63.333 0-34.927-28.416-63.343-63.342-63.343-17.454 0-33.813 7.074-45.733 19.556-3.727-1.261-7.713-1.956-11.86-1.956h-53.705zm71.768 132.656c18.648-.416 37.315-.416 55.962 0v60.406l-23.695-16.507c-2.576-1.795-5.997-1.795-8.573 0l-23.695 16.507v-60.406zm8.163-69.325c7.009-7.009 10.869-16.327 10.869-26.236 0-10.743-4.595-20.43-11.918-27.21 8.823-8.007 20.275-12.487 32.415-12.487 26.657 0 48.344 21.688 48.344 48.345 0 26.652-21.687 48.334-48.344 48.334-17.333 0-32.895-9.028-41.512-23.54 3.713-1.789 7.141-4.206 10.146-7.206zm-94.929 13.433v21.572c0 4.142 3.357 7.499 7.499 7.499 10.193 0 19.071 5.686 23.47 14.286-5.216.347-10.428.714-15.634 1.126-8.071.643-15.22 4.532-20.125 10.369-2.742-4.895-4.199-10.437-4.199-16.243v-31.174zm162.469 147.195c-16.3-4.477-33.319 2.785-41.394 17.663-9.282 17.108-3.473 38.348 13.224 48.354l31.575 18.924-62.369 10.86c-8.061 1.401-16.283-.282-23.15-4.741l-80.416-52.204c-1.665-37.872-.485-76.205 3.532-114.005.72-6.762 6.209-12.067 13.051-12.611 18.356-1.452 36.785-2.48 55.246-3.114v74.342c0 2.793 1.553 5.355 4.029 6.648s5.466 1.102 7.757-.495l31.194-21.731 31.194 21.731c1.281.893 2.781 1.346 4.288 1.346 1.187 0 2.379-.282 3.469-.851 2.476-1.293 4.029-3.855 4.029-6.648v-74.342c18.457.634 36.883 1.662 55.235 3.114 6.85.544 12.342 5.848 13.062 12.611 3.783 35.572 5.049 71.624 3.795 107.339l-60.993-29.791c-2.063-1.012-4.215-1.822-6.358-2.399z"/><circle cx="451.857" cy="476.367" r="7.499"/></g></g></svg>