<svg id="Capa_1" enable-background="new 0 0 512 512" height="512" viewBox="0 0 512 512" width="512" xmlns="http://www.w3.org/2000/svg"><g><g><path d="m488.843 256c0 137.241-111.259 248.5-248.5 248.5-68.62 0-130.745-27.82-175.718-72.782l24.294-24.294c38.75 38.76 92.288 62.731 151.423 62.731 118.27 0 214.154-95.885 214.154-214.154s-95.884-214.155-214.153-214.155c-58.882 0-112.209 23.769-150.918 62.226l18.587 18.587-84.854 22.224 22.224-84.854 19.758 19.758c44.932-44.669 106.835-72.287 175.203-72.287 137.24 0 248.5 111.259 248.5 248.5z" fill="#62d8f9"/></g><g><path d="m454.6 130.079c3.23 14.862 4.947 30.289 4.947 46.119 0 18.449-2.317 36.356-6.666 53.452 1.06 8.636 1.615 17.428 1.615 26.351 0 118.27-95.885 214.154-214.154 214.154-59.135 0-112.674-23.971-151.423-62.731l-24.294 24.294c44.972 44.962 107.097 72.782 175.718 72.782 137.241 0 248.5-111.259 248.5-248.5 0-45.958-12.492-88.993-34.243-125.921z" fill="#00bef7"/></g><g><g><circle cx="240.343" cy="256" fill="#c56e37" r="161.626"/></g><g><path d="m324.817 118.189c15.101 24.582 23.815 53.51 23.815 84.475 0 89.264-72.362 161.626-161.626 161.626-30.965 0-59.892-8.714-84.475-23.815 28.43 46.281 79.513 77.151 137.811 77.151 89.264 0 161.626-72.362 161.626-161.626.001-58.298-30.869-109.381-77.151-137.811z" fill="#a95e2c"/></g><g><circle cx="240.343" cy="256" fill="#eff3f5" r="131.321"/></g></g><g><path d="m421.361 74.981c-48.352-48.352-112.639-74.981-181.018-74.981-28.798 0-57.067 4.749-84.024 14.114-3.912 1.359-5.982 5.634-4.623 9.547 1.36 3.912 5.63 5.979 9.547 4.623 25.368-8.814 51.982-13.284 79.1-13.284 132.888 0 241 108.112 241 241s-108.112 241-241 241c-61.858 0-120.168-23.155-165.03-65.363l13.693-13.694c41.187 38.563 94.636 59.712 151.337 59.712 59.204 0 114.865-23.057 156.731-64.923s64.923-97.528 64.923-156.732-23.057-114.865-64.923-156.731-97.527-64.923-156.731-64.923c-58.925 0-114.399 22.873-156.205 64.405-1.414 1.404-2.211 3.314-2.214 5.308s.787 3.906 2.196 5.316l9.342 9.341-59.801 15.662 15.662-59.801 10.513 10.514c2.924 2.922 7.66 2.93 10.592.016 17.518-17.416 37.481-31.979 59.335-43.288 3.679-1.903 5.117-6.429 3.214-10.108-1.905-3.679-6.43-5.118-10.108-3.214-21.003 10.868-40.361 24.567-57.637 40.776l-14.547-14.548c-1.9-1.899-4.673-2.635-7.266-1.936-2.593.703-4.612 2.739-5.293 5.339l-22.224 84.854c-.676 2.578.067 5.319 1.951 7.204 1.885 1.885 4.626 2.626 7.204 1.951l84.854-22.224c2.6-.681 4.636-2.7 5.339-5.293.702-2.594-.036-5.365-1.936-7.266l-13.172-13.171c38.286-35.422 87.778-54.838 140.2-54.838 113.949 0 206.654 92.705 206.654 206.654s-92.705 206.654-206.654 206.654c-55.202 0-107.095-21.498-146.12-60.534-1.406-1.406-3.313-2.197-5.304-2.197-1.989 0-3.896.79-5.304 2.197l-24.294 24.295c-1.406 1.406-2.196 3.314-2.196 5.304s.791 3.896 2.197 5.303c48.364 48.351 112.651 74.979 181.022 74.979 68.379 0 132.666-26.629 181.019-74.981s74.981-112.64 74.981-181.019-26.629-132.666-74.982-181.019z"/><path d="m351.929 383.094c36.567-32.13 57.54-78.454 57.54-127.094 0-93.257-75.869-169.126-169.126-169.126s-169.126 75.869-169.126 169.126 75.869 169.126 169.126 169.126c28.467 0 56.616-7.209 81.406-20.847 3.629-1.997 4.952-6.558 2.956-10.187-1.998-3.629-6.559-4.952-10.187-2.956-22.581 12.423-48.23 18.989-74.176 18.989-84.985 0-154.126-69.141-154.126-154.126s69.141-154.126 154.126-154.126 154.127 69.142 154.127 154.127c0 44.326-19.114 86.543-52.44 115.826-3.112 2.733-3.418 7.473-.684 10.584 2.733 3.111 7.472 3.419 10.584.684z"/><path d="m240.343 117.179c-76.546 0-138.821 62.275-138.821 138.821s62.275 138.821 138.821 138.821 138.821-62.275 138.821-138.821-62.275-138.821-138.821-138.821zm0 262.642c-68.275 0-123.821-55.546-123.821-123.821s55.546-123.821 123.821-123.821 123.821 55.546 123.821 123.821-55.546 123.821-123.821 123.821z"/><path d="m247.843 246.489v-57.16c0-4.143-3.357-7.5-7.5-7.5s-7.5 3.357-7.5 7.5v57.159c-2.38 1.879-4.03 4.628-4.483 7.77l-40.757 23.531c-3.587 2.071-4.816 6.658-2.745 10.245 1.389 2.406 3.91 3.751 6.502 3.751 1.272 0 2.563-.324 3.743-1.006l40.75-23.526c1.39.555 2.902.869 4.49.869 6.695 0 12.122-5.427 12.122-12.122-.001-3.86-1.811-7.291-4.622-9.511z"/><path d="m240.343 163.927c4.143 0 7.5-3.357 7.5-7.5v-6.494c0-4.143-3.357-7.5-7.5-7.5s-7.5 3.357-7.5 7.5v6.494c0 4.142 3.357 7.5 7.5 7.5z"/><path d="m184.061 173.518c1.39 2.406 3.91 3.751 6.502 3.751 1.272 0 2.563-.324 3.743-1.006 3.587-2.071 4.816-6.658 2.745-10.245l-3.247-5.624c-2.071-3.587-6.66-4.815-10.245-2.745-3.587 2.071-4.816 6.658-2.745 10.245z"/><path d="m157.859 199.719-5.624-3.247c-3.59-2.071-8.175-.843-10.245 2.745-2.071 3.587-.842 8.174 2.745 10.245l5.624 3.247c1.182.682 2.471 1.006 3.743 1.006 2.592 0 5.113-1.345 6.502-3.751 2.072-3.587.842-8.174-2.745-10.245z"/><path d="m148.27 256c0-4.143-3.357-7.5-7.5-7.5h-6.494c-4.143 0-7.5 3.357-7.5 7.5s3.357 7.5 7.5 7.5h6.494c4.142 0 7.5-3.357 7.5-7.5z"/><path d="m150.359 299.291-5.624 3.247c-3.587 2.071-4.816 6.658-2.745 10.245 1.39 2.406 3.91 3.751 6.502 3.751 1.272 0 2.563-.324 3.743-1.006l5.624-3.247c3.587-2.071 4.816-6.658 2.745-10.245-2.072-3.587-6.66-4.815-10.245-2.745z"/><path d="m194.306 335.737c-3.589-2.071-8.175-.843-10.245 2.745l-3.247 5.624c-2.071 3.587-.842 8.174 2.745 10.245 1.182.682 2.471 1.006 3.743 1.006 2.592 0 5.113-1.345 6.502-3.751l3.247-5.624c2.071-3.586.842-8.173-2.745-10.245z"/><path d="m240.343 348.073c-4.143 0-7.5 3.357-7.5 7.5v6.494c0 4.143 3.357 7.5 7.5 7.5s7.5-3.357 7.5-7.5v-6.494c0-4.142-3.358-7.5-7.5-7.5z"/><path d="m296.624 338.482c-2.072-3.588-6.659-4.815-10.245-2.745-3.587 2.071-4.816 6.658-2.745 10.245l3.247 5.624c1.39 2.406 3.91 3.751 6.502 3.751 1.272 0 2.563-.324 3.743-1.006 3.587-2.071 4.816-6.658 2.745-10.245z"/><path d="m335.949 302.538-5.624-3.247c-3.589-2.071-8.175-.843-10.245 2.745-2.071 3.587-.842 8.174 2.745 10.245l5.624 3.247c1.182.682 2.471 1.006 3.743 1.006 2.592 0 5.113-1.345 6.502-3.751 2.072-3.587.842-8.174-2.745-10.245z"/><path d="m346.409 248.5h-6.493c-4.143 0-7.5 3.357-7.5 7.5s3.357 7.5 7.5 7.5h6.493c4.143 0 7.5-3.357 7.5-7.5s-3.357-7.5-7.5-7.5z"/><path d="m326.582 213.715c1.272 0 2.563-.324 3.743-1.006l5.624-3.247c3.587-2.071 4.816-6.658 2.745-10.245s-6.66-4.815-10.245-2.745l-5.624 3.247c-3.587 2.071-4.816 6.658-2.745 10.245 1.39 2.406 3.91 3.751 6.502 3.751z"/><path d="m297.126 157.648c-3.589-2.071-8.175-.844-10.245 2.745l-3.247 5.624c-2.071 3.587-.842 8.174 2.745 10.245 1.182.682 2.471 1.006 3.743 1.006 2.592 0 5.113-1.345 6.502-3.751l3.247-5.624c2.071-3.586.842-8.173-2.745-10.245z"/></g></g></svg>